<mxfile host="drawio-plugin" modified="2021-11-03T06:09:44.159Z" agent="5.0 (X11; Linux x86_64) AppleWebKit/537.36 (KHTML, like Gecko) Chrome/89.0.4389.114 Safari/537.36" etag="zBw3kSfQuTri0pY0tozC" version="14.7.4" type="embed"><diagram id="5dbOUXZhLIxRBl6OEjL3" name="Page-1"><mxGraphModel dx="898" dy="579" grid="1" gridSize="10" guides="1" tooltips="1" connect="1" arrows="1" fold="1" page="1" pageScale="1" pageWidth="850" pageHeight="1100" math="0" shadow="0"><root><mxCell id="0"/><mxCell id="1" parent="0"/><mxCell id="uUH0PDPOnwpwheN3JYVn-45" value="&lt;div&gt;Store raw &lt;br&gt;&lt;/div&gt;&lt;div&gt;source files&lt;/div&gt;" style="edgeStyle=orthogonalEdgeStyle;rounded=0;orthogonalLoop=1;jettySize=auto;html=1;exitX=1;exitY=0.5;exitDx=0;exitDy=0;entryX=0;entryY=0.5;entryDx=0;entryDy=0;labelBackgroundColor=default;fontColor=default;strokeColor=default;" parent="1" source="uUH0PDPOnwpwheN3JYVn-38" target="uUH0PDPOnwpwheN3JYVn-44" edge="1"><mxGeometry y="20" relative="1" as="geometry"><mxPoint as="offset"/></mxGeometry></mxCell><mxCell id="uUH0PDPOnwpwheN3JYVn-47" value="Raw source files run" style="edgeStyle=orthogonalEdgeStyle;rounded=0;orthogonalLoop=1;jettySize=auto;html=1;exitX=1;exitY=0.5;exitDx=0;exitDy=0;entryX=0;entryY=0.5;entryDx=0;entryDy=0;labelBackgroundColor=default;fontColor=default;strokeColor=default;" parent="1" source="uUH0PDPOnwpwheN3JYVn-38" target="uUH0PDPOnwpwheN3JYVn-46" edge="1"><mxGeometry x="0.2003" y="-10" relative="1" as="geometry"><mxPoint as="offset"/></mxGeometry></mxCell><mxCell id="uUH0PDPOnwpwheN3JYVn-38" value="Loading" style="rounded=1;whiteSpace=wrap;html=1;labelBackgroundColor=default;fontColor=default;strokeColor=default;fillColor=default;gradientColor=none;fontSize=14;fontStyle=1" parent="1" vertex="1"><mxGeometry x="145" y="30" width="120" height="60" as="geometry"/></mxCell><mxCell id="uUH0PDPOnwpwheN3JYVn-53" style="edgeStyle=orthogonalEdgeStyle;rounded=0;orthogonalLoop=1;jettySize=auto;html=1;exitX=0.75;exitY=0;exitDx=0;exitDy=0;entryX=0;entryY=0.75;entryDx=0;entryDy=0;labelBackgroundColor=default;fontColor=default;strokeColor=default;" parent="1" source="uUH0PDPOnwpwheN3JYVn-39" target="uUH0PDPOnwpwheN3JYVn-49" edge="1"><mxGeometry relative="1" as="geometry"/></mxCell><mxCell id="uUH0PDPOnwpwheN3JYVn-56" value="Store preprocessed data" style="edgeLabel;html=1;align=center;verticalAlign=middle;resizable=0;points=[];fontColor=default;labelBackgroundColor=default;" parent="uUH0PDPOnwpwheN3JYVn-53" vertex="1" connectable="0"><mxGeometry x="-0.2151" relative="1" as="geometry"><mxPoint as="offset"/></mxGeometry></mxCell><mxCell id="uUH0PDPOnwpwheN3JYVn-54" style="edgeStyle=orthogonalEdgeStyle;rounded=0;orthogonalLoop=1;jettySize=auto;html=1;exitX=1;exitY=0.5;exitDx=0;exitDy=0;entryX=0;entryY=0.5;entryDx=0;entryDy=0;labelBackgroundColor=default;fontColor=default;strokeColor=default;" parent="1" source="uUH0PDPOnwpwheN3JYVn-39" target="uUH0PDPOnwpwheN3JYVn-51" edge="1"><mxGeometry relative="1" as="geometry"/></mxCell><mxCell id="uUH0PDPOnwpwheN3JYVn-55" value="Preprocessing run" style="edgeLabel;html=1;align=center;verticalAlign=middle;resizable=0;points=[];fontColor=default;labelBackgroundColor=default;" parent="uUH0PDPOnwpwheN3JYVn-54" vertex="1" connectable="0"><mxGeometry x="-0.3019" y="2" relative="1" as="geometry"><mxPoint x="13" y="2" as="offset"/></mxGeometry></mxCell><mxCell id="uUH0PDPOnwpwheN3JYVn-39" value="Preprocessing" style="rounded=1;whiteSpace=wrap;html=1;labelBackgroundColor=default;fontColor=default;strokeColor=default;fillColor=default;gradientColor=none;fontSize=14;fontStyle=1" parent="1" vertex="1"><mxGeometry x="130" y="300" width="120" height="60" as="geometry"/></mxCell><mxCell id="uUH0PDPOnwpwheN3JYVn-62" style="edgeStyle=orthogonalEdgeStyle;rounded=0;orthogonalLoop=1;jettySize=auto;html=1;exitX=1;exitY=0.25;exitDx=0;exitDy=0;entryX=0;entryY=0.25;entryDx=0;entryDy=0;labelBackgroundColor=default;fontColor=default;strokeColor=default;" parent="1" source="uUH0PDPOnwpwheN3JYVn-40" target="uUH0PDPOnwpwheN3JYVn-59" edge="1"><mxGeometry relative="1" as="geometry"/></mxCell><mxCell id="uUH0PDPOnwpwheN3JYVn-63" value="&lt;div&gt;Store&lt;br&gt;&lt;/div&gt;&lt;div&gt;trained model&lt;/div&gt;" style="edgeLabel;html=1;align=center;verticalAlign=middle;resizable=0;points=[];fontColor=default;labelBackgroundColor=default;" parent="uUH0PDPOnwpwheN3JYVn-62" vertex="1" connectable="0"><mxGeometry x="-0.3228" y="-2" relative="1" as="geometry"><mxPoint x="14" y="-7" as="offset"/></mxGeometry></mxCell><mxCell id="uUH0PDPOnwpwheN3JYVn-64" style="edgeStyle=orthogonalEdgeStyle;rounded=0;orthogonalLoop=1;jettySize=auto;html=1;exitX=1;exitY=0.75;exitDx=0;exitDy=0;entryX=0;entryY=0.75;entryDx=0;entryDy=0;labelBackgroundColor=default;fontColor=default;strokeColor=default;" parent="1" source="uUH0PDPOnwpwheN3JYVn-40" target="uUH0PDPOnwpwheN3JYVn-59" edge="1"><mxGeometry relative="1" as="geometry"/></mxCell><mxCell id="uUH0PDPOnwpwheN3JYVn-65" value="Training run" style="edgeLabel;html=1;align=center;verticalAlign=middle;resizable=0;points=[];fontColor=default;labelBackgroundColor=default;" parent="uUH0PDPOnwpwheN3JYVn-64" vertex="1" connectable="0"><mxGeometry x="0.2683" y="-2" relative="1" as="geometry"><mxPoint x="-17" as="offset"/></mxGeometry></mxCell><mxCell id="uUH0PDPOnwpwheN3JYVn-40" value="Training" style="rounded=1;whiteSpace=wrap;html=1;labelBackgroundColor=default;fontColor=default;strokeColor=default;fillColor=default;gradientColor=none;fontSize=14;fontStyle=1" parent="1" vertex="1"><mxGeometry x="130" y="510" width="120" height="60" as="geometry"/></mxCell><mxCell id="uUH0PDPOnwpwheN3JYVn-73" style="edgeStyle=orthogonalEdgeStyle;rounded=0;orthogonalLoop=1;jettySize=auto;html=1;exitX=1;exitY=0.25;exitDx=0;exitDy=0;entryX=0;entryY=0.25;entryDx=0;entryDy=0;labelBackgroundColor=default;fontColor=default;strokeColor=default;" parent="1" source="uUH0PDPOnwpwheN3JYVn-41" target="uUH0PDPOnwpwheN3JYVn-68" edge="1"><mxGeometry relative="1" as="geometry"/></mxCell><mxCell id="uUH0PDPOnwpwheN3JYVn-76" value="Inferencing run" style="edgeLabel;html=1;align=center;verticalAlign=middle;resizable=0;points=[];fontColor=default;labelBackgroundColor=default;" parent="uUH0PDPOnwpwheN3JYVn-73" vertex="1" connectable="0"><mxGeometry x="-0.3097" y="1" relative="1" as="geometry"><mxPoint x="13" as="offset"/></mxGeometry></mxCell><mxCell id="uUH0PDPOnwpwheN3JYVn-74" style="edgeStyle=orthogonalEdgeStyle;rounded=0;orthogonalLoop=1;jettySize=auto;html=1;exitX=0.25;exitY=0;exitDx=0;exitDy=0;entryX=0;entryY=0.25;entryDx=0;entryDy=0;labelBackgroundColor=default;fontColor=default;strokeColor=default;" parent="1" source="uUH0PDPOnwpwheN3JYVn-41" target="uUH0PDPOnwpwheN3JYVn-67" edge="1"><mxGeometry relative="1" as="geometry"/></mxCell><mxCell id="uUH0PDPOnwpwheN3JYVn-75" value="Store inferencing output" style="edgeLabel;html=1;align=center;verticalAlign=middle;resizable=0;points=[];fontColor=default;labelBackgroundColor=default;" parent="uUH0PDPOnwpwheN3JYVn-74" vertex="1" connectable="0"><mxGeometry x="0.5059" relative="1" as="geometry"><mxPoint x="-19" as="offset"/></mxGeometry></mxCell><mxCell id="uUH0PDPOnwpwheN3JYVn-41" value="Inferencing" style="rounded=1;whiteSpace=wrap;html=1;labelBackgroundColor=default;fontColor=default;strokeColor=default;fillColor=default;gradientColor=none;fontSize=14;fontStyle=1" parent="1" vertex="1"><mxGeometry x="130" y="900" width="120" height="60" as="geometry"/></mxCell><mxCell id="uUH0PDPOnwpwheN3JYVn-43" value="Raw source files" style="edgeStyle=orthogonalEdgeStyle;rounded=0;orthogonalLoop=1;jettySize=auto;html=1;entryX=0;entryY=0.5;entryDx=0;entryDy=0;labelBackgroundColor=default;fontColor=default;strokeColor=default;" parent="1" target="uUH0PDPOnwpwheN3JYVn-38" edge="1"><mxGeometry x="-1" y="-10" relative="1" as="geometry"><mxPoint x="80" y="60" as="sourcePoint"/><Array as="points"><mxPoint x="80" y="60"/></Array><mxPoint x="-10" y="-10" as="offset"/></mxGeometry></mxCell><mxCell id="uUH0PDPOnwpwheN3JYVn-44" value="NGAS" style="rounded=0;whiteSpace=wrap;html=1;labelBackgroundColor=default;fontColor=default;strokeColor=default;fillColor=default;gradientColor=none;" parent="1" vertex="1"><mxGeometry x="355" y="30" width="120" height="60" as="geometry"/></mxCell><mxCell id="uUH0PDPOnwpwheN3JYVn-46" value="MLFlow" style="rounded=0;whiteSpace=wrap;html=1;labelBackgroundColor=default;fontColor=default;strokeColor=default;fillColor=default;gradientColor=none;" parent="1" vertex="1"><mxGeometry x="355" y="110" width="120" height="60" as="geometry"/></mxCell><mxCell id="uUH0PDPOnwpwheN3JYVn-52" style="edgeStyle=orthogonalEdgeStyle;rounded=0;orthogonalLoop=1;jettySize=auto;html=1;exitX=0;exitY=0.25;exitDx=0;exitDy=0;entryX=0.25;entryY=0;entryDx=0;entryDy=0;labelBackgroundColor=default;fontColor=default;strokeColor=default;" parent="1" source="uUH0PDPOnwpwheN3JYVn-49" target="uUH0PDPOnwpwheN3JYVn-39" edge="1"><mxGeometry relative="1" as="geometry"/></mxCell><mxCell id="uUH0PDPOnwpwheN3JYVn-57" value="Read raw source files" style="edgeLabel;html=1;align=center;verticalAlign=middle;resizable=0;points=[];fontColor=default;labelBackgroundColor=default;" parent="uUH0PDPOnwpwheN3JYVn-52" vertex="1" connectable="0"><mxGeometry x="-0.0517" y="2" relative="1" as="geometry"><mxPoint y="-1" as="offset"/></mxGeometry></mxCell><mxCell id="uUH0PDPOnwpwheN3JYVn-49" value="NGAS" style="rounded=0;whiteSpace=wrap;html=1;labelBackgroundColor=default;fontColor=default;strokeColor=default;fillColor=default;gradientColor=none;" parent="1" vertex="1"><mxGeometry x="355" y="220" width="120" height="60" as="geometry"/></mxCell><mxCell id="uUH0PDPOnwpwheN3JYVn-51" value="MLFlow" style="rounded=0;whiteSpace=wrap;html=1;labelBackgroundColor=default;fontColor=default;strokeColor=default;fillColor=default;gradientColor=none;" parent="1" vertex="1"><mxGeometry x="355" y="300" width="120" height="60" as="geometry"/></mxCell><mxCell id="uUH0PDPOnwpwheN3JYVn-60" style="edgeStyle=orthogonalEdgeStyle;rounded=0;orthogonalLoop=1;jettySize=auto;html=1;exitX=0;exitY=0.25;exitDx=0;exitDy=0;entryX=0.25;entryY=0;entryDx=0;entryDy=0;labelBackgroundColor=default;fontColor=default;strokeColor=default;" parent="1" source="uUH0PDPOnwpwheN3JYVn-58" target="uUH0PDPOnwpwheN3JYVn-40" edge="1"><mxGeometry relative="1" as="geometry"/></mxCell><mxCell id="uUH0PDPOnwpwheN3JYVn-61" value="Read preprocessed data" style="edgeLabel;html=1;align=center;verticalAlign=middle;resizable=0;points=[];fontColor=default;labelBackgroundColor=default;" parent="uUH0PDPOnwpwheN3JYVn-60" vertex="1" connectable="0"><mxGeometry x="-0.4292" y="2" relative="1" as="geometry"><mxPoint as="offset"/></mxGeometry></mxCell><mxCell id="uUH0PDPOnwpwheN3JYVn-58" value="NGAS" style="rounded=0;whiteSpace=wrap;html=1;labelBackgroundColor=default;fontColor=default;strokeColor=default;fillColor=default;gradientColor=none;" parent="1" vertex="1"><mxGeometry x="355" y="420" width="120" height="60" as="geometry"/></mxCell><mxCell id="uUH0PDPOnwpwheN3JYVn-66" value="Store trained model using NGAS-backed storage (?)" style="edgeStyle=orthogonalEdgeStyle;rounded=0;orthogonalLoop=1;jettySize=auto;html=1;exitX=0.5;exitY=0;exitDx=0;exitDy=0;entryX=0.5;entryY=1;entryDx=0;entryDy=0;labelBackgroundColor=default;fontColor=default;strokeColor=default;" parent="1" source="uUH0PDPOnwpwheN3JYVn-59" target="uUH0PDPOnwpwheN3JYVn-58" edge="1"><mxGeometry x="-0.3333" y="-125" relative="1" as="geometry"><mxPoint as="offset"/></mxGeometry></mxCell><mxCell id="uUH0PDPOnwpwheN3JYVn-59" value="MLFlow" style="rounded=0;whiteSpace=wrap;html=1;labelBackgroundColor=default;fontColor=default;strokeColor=default;fillColor=default;gradientColor=none;" parent="1" vertex="1"><mxGeometry x="355" y="510" width="120" height="60" as="geometry"/></mxCell><mxCell id="uUH0PDPOnwpwheN3JYVn-69" style="edgeStyle=orthogonalEdgeStyle;rounded=0;orthogonalLoop=1;jettySize=auto;html=1;exitX=0;exitY=0.75;exitDx=0;exitDy=0;entryX=0.5;entryY=0;entryDx=0;entryDy=0;labelBackgroundColor=default;fontColor=default;strokeColor=default;" parent="1" source="uUH0PDPOnwpwheN3JYVn-67" target="uUH0PDPOnwpwheN3JYVn-41" edge="1"><mxGeometry relative="1" as="geometry"/></mxCell><mxCell id="uUH0PDPOnwpwheN3JYVn-70" value="Read preprocessed data" style="edgeLabel;html=1;align=center;verticalAlign=middle;resizable=0;points=[];fontColor=default;labelBackgroundColor=default;" parent="uUH0PDPOnwpwheN3JYVn-69" vertex="1" connectable="0"><mxGeometry x="-0.3579" y="-2" relative="1" as="geometry"><mxPoint as="offset"/></mxGeometry></mxCell><mxCell id="uUH0PDPOnwpwheN3JYVn-67" value="NGAS" style="rounded=0;whiteSpace=wrap;html=1;labelBackgroundColor=default;fontColor=default;strokeColor=default;fillColor=default;gradientColor=none;" parent="1" vertex="1"><mxGeometry x="355" y="810" width="120" height="60" as="geometry"/></mxCell><mxCell id="uUH0PDPOnwpwheN3JYVn-71" style="edgeStyle=orthogonalEdgeStyle;rounded=0;orthogonalLoop=1;jettySize=auto;html=1;exitX=0.5;exitY=0;exitDx=0;exitDy=0;entryX=0.75;entryY=0;entryDx=0;entryDy=0;labelBackgroundColor=default;fontColor=default;strokeColor=default;" parent="1" source="uUH0PDPOnwpwheN3JYVn-68" target="uUH0PDPOnwpwheN3JYVn-41" edge="1"><mxGeometry relative="1" as="geometry"/></mxCell><mxCell id="uUH0PDPOnwpwheN3JYVn-72" value="Load trained model" style="edgeLabel;html=1;align=center;verticalAlign=middle;resizable=0;points=[];fontColor=default;labelBackgroundColor=default;" parent="uUH0PDPOnwpwheN3JYVn-71" vertex="1" connectable="0"><mxGeometry x="0.1755" y="1" relative="1" as="geometry"><mxPoint as="offset"/></mxGeometry></mxCell><mxCell id="uUH0PDPOnwpwheN3JYVn-68" value="MLFlow" style="rounded=0;whiteSpace=wrap;html=1;labelBackgroundColor=default;fontColor=default;strokeColor=default;fillColor=default;gradientColor=none;" parent="1" vertex="1"><mxGeometry x="355" y="900" width="120" height="60" as="geometry"/></mxCell><mxCell id="uUH0PDPOnwpwheN3JYVn-77" value="" style="endArrow=classic;html=1;rounded=0;labelBackgroundColor=default;fontColor=default;strokeColor=default;entryX=0;entryY=0.5;entryDx=0;entryDy=0;" parent="1" target="uUH0PDPOnwpwheN3JYVn-40" edge="1"><mxGeometry width="50" height="50" relative="1" as="geometry"><mxPoint x="50" y="540" as="sourcePoint"/><mxPoint x="100" y="460" as="targetPoint"/></mxGeometry></mxCell><mxCell id="uUH0PDPOnwpwheN3JYVn-78" value="Training parameters" style="edgeLabel;html=1;align=center;verticalAlign=middle;resizable=0;points=[];fontColor=default;labelBackgroundColor=default;" parent="uUH0PDPOnwpwheN3JYVn-77" vertex="1" connectable="0"><mxGeometry x="0.3198" y="1" relative="1" as="geometry"><mxPoint x="-43" y="1" as="offset"/></mxGeometry></mxCell><mxCell id="uUH0PDPOnwpwheN3JYVn-82" value="" style="endArrow=classic;html=1;rounded=0;labelBackgroundColor=default;fontSize=13;fontColor=default;strokeColor=default;entryX=0;entryY=0.5;entryDx=0;entryDy=0;" parent="1" target="uUH0PDPOnwpwheN3JYVn-39" edge="1"><mxGeometry width="50" height="50" relative="1" as="geometry"><mxPoint x="40" y="330" as="sourcePoint"/><mxPoint x="90" y="320" as="targetPoint"/></mxGeometry></mxCell><mxCell id="uUH0PDPOnwpwheN3JYVn-83" value="&lt;font style=&quot;font-size: 12px&quot;&gt;Preprocessing &lt;br&gt;parameters&lt;br&gt;&lt;/font&gt;" style="edgeLabel;html=1;align=center;verticalAlign=middle;resizable=0;points=[];fontSize=13;fontColor=default;labelBackgroundColor=default;" parent="uUH0PDPOnwpwheN3JYVn-82" vertex="1" connectable="0"><mxGeometry x="-0.2667" y="-1" relative="1" as="geometry"><mxPoint x="-13" y="-1" as="offset"/></mxGeometry></mxCell><mxCell id="uUH0PDPOnwpwheN3JYVn-84" style="edgeStyle=orthogonalEdgeStyle;rounded=0;orthogonalLoop=1;jettySize=auto;html=1;exitX=1;exitY=0.5;exitDx=0;exitDy=0;entryX=0;entryY=0.5;entryDx=0;entryDy=0;labelBackgroundColor=default;fontColor=default;strokeColor=default;" parent="1" source="uUH0PDPOnwpwheN3JYVn-88" target="uUH0PDPOnwpwheN3JYVn-93" edge="1"><mxGeometry relative="1" as="geometry"/></mxCell><mxCell id="uUH0PDPOnwpwheN3JYVn-85" value="Update model" style="edgeLabel;html=1;align=center;verticalAlign=middle;resizable=0;points=[];fontColor=default;labelBackgroundColor=default;" parent="uUH0PDPOnwpwheN3JYVn-84" vertex="1" connectable="0"><mxGeometry x="-0.3228" y="-2" relative="1" as="geometry"><mxPoint x="14" y="-7" as="offset"/></mxGeometry></mxCell><mxCell id="uUH0PDPOnwpwheN3JYVn-86" style="edgeStyle=orthogonalEdgeStyle;rounded=0;orthogonalLoop=1;jettySize=auto;html=1;exitX=1;exitY=0.75;exitDx=0;exitDy=0;entryX=0;entryY=0.75;entryDx=0;entryDy=0;labelBackgroundColor=default;fontColor=default;strokeColor=default;" parent="1" source="uUH0PDPOnwpwheN3JYVn-88" target="uUH0PDPOnwpwheN3JYVn-93" edge="1"><mxGeometry relative="1" as="geometry"/></mxCell><mxCell id="uUH0PDPOnwpwheN3JYVn-87" value="Training run" style="edgeLabel;html=1;align=center;verticalAlign=middle;resizable=0;points=[];fontColor=default;labelBackgroundColor=default;" parent="uUH0PDPOnwpwheN3JYVn-86" vertex="1" connectable="0"><mxGeometry x="0.2683" y="-2" relative="1" as="geometry"><mxPoint x="-17" as="offset"/></mxGeometry></mxCell><mxCell id="uUH0PDPOnwpwheN3JYVn-88" value="Retraining" style="rounded=1;whiteSpace=wrap;html=1;labelBackgroundColor=default;fontColor=default;strokeColor=default;fillColor=default;gradientColor=none;fontSize=14;fontStyle=1" parent="1" vertex="1"><mxGeometry x="130" y="690" width="120" height="60" as="geometry"/></mxCell><mxCell id="uUH0PDPOnwpwheN3JYVn-89" style="edgeStyle=orthogonalEdgeStyle;rounded=0;orthogonalLoop=1;jettySize=auto;html=1;exitX=0;exitY=0.25;exitDx=0;exitDy=0;entryX=0.25;entryY=0;entryDx=0;entryDy=0;labelBackgroundColor=default;fontColor=default;strokeColor=default;" parent="1" source="uUH0PDPOnwpwheN3JYVn-91" target="uUH0PDPOnwpwheN3JYVn-88" edge="1"><mxGeometry relative="1" as="geometry"/></mxCell><mxCell id="uUH0PDPOnwpwheN3JYVn-90" value="Read preprocessed data" style="edgeLabel;html=1;align=center;verticalAlign=middle;resizable=0;points=[];fontColor=default;labelBackgroundColor=default;" parent="uUH0PDPOnwpwheN3JYVn-89" vertex="1" connectable="0"><mxGeometry x="-0.4292" y="2" relative="1" as="geometry"><mxPoint as="offset"/></mxGeometry></mxCell><mxCell id="uUH0PDPOnwpwheN3JYVn-97" value="&lt;font style=&quot;font-size: 11px&quot;&gt;Read old model from NGAS&lt;br&gt;&lt;/font&gt;" style="edgeStyle=orthogonalEdgeStyle;rounded=0;orthogonalLoop=1;jettySize=auto;html=1;exitX=0.25;exitY=1;exitDx=0;exitDy=0;entryX=0.25;entryY=0;entryDx=0;entryDy=0;labelBackgroundColor=default;fontSize=12;fontColor=default;strokeColor=default;" parent="1" source="uUH0PDPOnwpwheN3JYVn-91" target="uUH0PDPOnwpwheN3JYVn-93" edge="1"><mxGeometry x="-0.3333" y="-25" relative="1" as="geometry"><mxPoint as="offset"/></mxGeometry></mxCell><mxCell id="uUH0PDPOnwpwheN3JYVn-91" value="NGAS" style="rounded=0;whiteSpace=wrap;html=1;labelBackgroundColor=default;fontColor=default;strokeColor=default;fillColor=default;gradientColor=none;" parent="1" vertex="1"><mxGeometry x="355" y="600" width="120" height="60" as="geometry"/></mxCell><mxCell id="uUH0PDPOnwpwheN3JYVn-92" value="Store new model in NGAS" style="edgeStyle=orthogonalEdgeStyle;rounded=0;orthogonalLoop=1;jettySize=auto;html=1;exitX=0.75;exitY=0;exitDx=0;exitDy=0;labelBackgroundColor=default;fontColor=default;strokeColor=default;" parent="1" source="uUH0PDPOnwpwheN3JYVn-93" edge="1"><mxGeometry x="-0.0811" y="-58" relative="1" as="geometry"><mxPoint as="offset"/><mxPoint x="452" y="660" as="targetPoint"/></mxGeometry></mxCell><mxCell id="uUH0PDPOnwpwheN3JYVn-96" style="edgeStyle=orthogonalEdgeStyle;rounded=0;orthogonalLoop=1;jettySize=auto;html=1;exitX=0;exitY=0.25;exitDx=0;exitDy=0;entryX=1;entryY=0.25;entryDx=0;entryDy=0;labelBackgroundColor=default;fontSize=12;fontColor=default;strokeColor=default;" parent="1" source="uUH0PDPOnwpwheN3JYVn-93" target="uUH0PDPOnwpwheN3JYVn-88" edge="1"><mxGeometry relative="1" as="geometry"/></mxCell><mxCell id="uUH0PDPOnwpwheN3JYVn-98" value="Read old model" style="edgeLabel;html=1;align=center;verticalAlign=middle;resizable=0;points=[];fontSize=11;fontColor=default;labelBackgroundColor=default;" parent="uUH0PDPOnwpwheN3JYVn-96" vertex="1" connectable="0"><mxGeometry x="0.2952" y="4" relative="1" as="geometry"><mxPoint x="23" y="-9" as="offset"/></mxGeometry></mxCell><mxCell id="uUH0PDPOnwpwheN3JYVn-93" value="MLFlow" style="rounded=0;whiteSpace=wrap;html=1;labelBackgroundColor=default;fontColor=default;strokeColor=default;fillColor=default;gradientColor=none;" parent="1" vertex="1"><mxGeometry x="355" y="690" width="120" height="60" as="geometry"/></mxCell><mxCell id="uUH0PDPOnwpwheN3JYVn-94" value="" style="endArrow=classic;html=1;rounded=0;labelBackgroundColor=default;fontColor=default;strokeColor=default;entryX=0;entryY=0.5;entryDx=0;entryDy=0;" parent="1" target="uUH0PDPOnwpwheN3JYVn-88" edge="1"><mxGeometry width="50" height="50" relative="1" as="geometry"><mxPoint x="50" y="720" as="sourcePoint"/><mxPoint x="100" y="640" as="targetPoint"/></mxGeometry></mxCell><mxCell id="uUH0PDPOnwpwheN3JYVn-95" value="Training parameters" style="edgeLabel;html=1;align=center;verticalAlign=middle;resizable=0;points=[];fontColor=default;labelBackgroundColor=default;" parent="uUH0PDPOnwpwheN3JYVn-94" vertex="1" connectable="0"><mxGeometry x="0.3198" y="1" relative="1" as="geometry"><mxPoint x="-43" y="1" as="offset"/></mxGeometry></mxCell></root></mxGraphModel></diagram></mxfile>